<svg xmlns="http://www.w3.org/2000/svg" viewBox="0 0 512 512">
  <defs>
    <style>
      .cls-1 {
        fill: #19e77c;
      }

      .cls-2 {
        fill: #00c864;
      }

      .cls-3 {
        fill: #131c32;
      }

      .cls-4 {
        fill: #00854c;
      }

      .cls-5 {
        fill: #00ab64;
      }

      .cls-6 {
        fill: #5ceea2;
      }

      .cls-7 {
        fill: #2d3447;
      }

      .cls-8 {
        fill: #559aff;
      }

      .cls-9 {
        fill: #2980ff;
      }

      .cls-10 {
        fill: #0054db;
      }

      .cls-11 {
        fill: #3f8dff;
      }

      .cls-12 {
        fill: #5c9eff;
      }

      .cls-13 {
        fill: #68a5ff;
      }

      .cls-14 {
        fill: #d7e816;
      }

      .cls-15 {
        fill: #e4f069;
      }

      .cls-16 {
        fill: #c6c500;
      }

      .cls-17 {
        fill: #d0d51e;
      }

      .cls-18 {
        fill: #f0e5a4;
      }

      .cls-19 {
        fill: #9f9a00;
      }

      .cls-20 {
        fill: #b0bc00;
      }

      .cls-21 {
        fill: #ff4957;
      }

      .cls-22 {
        fill: #ff606c;
      }

      .cls-23 {
        fill: #ff2a3a;
      }

      .cls-24 {
        fill: #ff6e79;
      }

      .cls-25 {
        fill: #9ac3ff;
      }

      .cls-26 {
        fill: #82f2b8;
      }

      .cls-27 {
        fill: #589bff;
      }

      .cls-28 {
        fill: #e6d365;
      }

      .cls-29 {
        fill: #e7f173;
      }

      .cls-30 {
        fill: #bbb219;
      }

      .cls-31 {
        fill: #cfd62d;
      }
    </style>
  </defs>
  <title>E Commerce_512px</title>
  <g id="Ship">
    <g>
      <rect class="cls-1" x="192" y="192" width="256" height="170.66667" rx="42.66667" ry="42.66667"/>
      <path class="cls-2" d="M234.66667,192h64a42.66667,42.66667,0,0,1,42.66667,42.66667v128a0,0,0,0,1,0,0H234.66667A42.66667,42.66667,0,0,1,192,320V234.66667A42.66667,42.66667,0,0,1,234.66667,192Z"/>
      <rect class="cls-3" x="213.33333" y="234.66667" width="21.33333" height="85.33333" rx="10.66666" ry="10.66666"/>
      <rect class="cls-3" x="256" y="234.66667" width="21.33333" height="85.33333" rx="10.66666" ry="10.66666"/>
      <rect class="cls-4" x="298.66666" y="234.66667" width="21.33333" height="85.33333" rx="10.66666" ry="10.66666"/>
      <rect class="cls-5" x="384" y="213.33333" width="21.33333" height="64" rx="10.66666" ry="10.66666" transform="translate(149.33334 640) rotate(-90)"/>
      <rect class="cls-6" x="384" y="234.66667" width="21.33333" height="64" rx="10.66666" ry="10.66666" transform="translate(128 661.33334) rotate(-90)"/>
      <rect class="cls-7" x="384" y="277.33333" width="21.33333" height="64" rx="10.66666" ry="10.66666" transform="translate(85.33334 704) rotate(-90)"/>
      <rect class="cls-8" x="42.66667" y="192" width="256" height="170.66667" rx="42.66667" ry="42.66667"/>
      <rect class="cls-9" x="42.66667" y="192" width="149.33333" height="170.66667" rx="42.66667" ry="42.66667"/>
      <rect class="cls-10" x="64" y="234.66667" width="21.33333" height="85.33333" rx="10.66666" ry="10.66666"/>
      <rect class="cls-11" x="85.33333" y="234.66667" width="21.33333" height="85.33333" rx="10.66666" ry="10.66666"/>
      <rect class="cls-12" x="85.33333" y="256" width="21.33333" height="42.66667" rx="10.66666" ry="10.66666"/>
      <rect class="cls-11" x="128" y="234.66667" width="21.33333" height="85.33333" rx="10.66666" ry="10.66666"/>
      <rect class="cls-12" x="128" y="256" width="21.33333" height="42.66667" rx="10.66666" ry="10.66666"/>
      <rect class="cls-11" x="42.66667" y="234.66667" width="21.33333" height="85.33333" rx="10.66666" ry="10.66666"/>
      <rect class="cls-12" x="42.66667" y="256" width="21.33333" height="42.66667" rx="10.66666" ry="10.66666"/>
      <rect class="cls-10" x="106.66667" y="234.66667" width="21.33333" height="85.33333" rx="10.66666" ry="10.66666"/>
      <rect class="cls-10" x="149.33333" y="234.66667" width="21.33333" height="85.33333" rx="10.66666" ry="10.66666"/>
      <rect class="cls-10" x="234.66667" y="213.33333" width="21.33333" height="64" rx="10.66666" ry="10.66666" transform="translate(0 490.66667) rotate(-90)"/>
      <rect class="cls-13" x="234.66667" y="234.66667" width="21.33333" height="64" rx="10.66666" ry="10.66666" transform="translate(-21.33333 512) rotate(-90)"/>
      <rect class="cls-13" x="234.66667" y="298.66667" width="21.33333" height="64" rx="10.66666" ry="10.66666" transform="translate(-85.33333 576) rotate(-90)"/>
      <rect class="cls-10" x="234.66667" y="277.33333" width="21.33333" height="64" rx="10.66666" ry="10.66666" transform="translate(-64 554.66667) rotate(-90)"/>
      <rect class="cls-14" x="106.66667" y="21.33333" width="256" height="170.66667" rx="42.66667" ry="42.66667"/>
      <rect class="cls-15" x="298.66667" y="64" width="21.33333" height="64" rx="10.66666" ry="10.66666" transform="translate(213.33333 405.33333) rotate(-90)"/>
      <rect class="cls-15" x="298.66667" y="128" width="21.33333" height="64" rx="10.66666" ry="10.66666" transform="translate(149.33333 469.33333) rotate(-90)"/>
      <rect class="cls-16" x="106.66667" y="21.33333" width="149.33333" height="170.66667" rx="42.66667" ry="42.66667"/>
      <rect class="cls-17" x="149.33333" y="64" width="21.33333" height="85.33333" rx="10.66666" ry="10.66666"/>
      <rect class="cls-18" x="149.33333" y="85.33333" width="21.33333" height="42.66667" rx="10.66666" ry="10.66666"/>
      <rect class="cls-17" x="192" y="64" width="21.33333" height="85.33333" rx="10.66666" ry="10.66666"/>
      <rect class="cls-18" x="192" y="85.33333" width="21.33333" height="42.66667" rx="10.66666" ry="10.66666"/>
      <rect class="cls-17" x="106.66667" y="64" width="21.33333" height="85.33333" rx="10.66666" ry="10.66666"/>
      <rect class="cls-18" x="106.66667" y="85.33333" width="21.33333" height="42.66667" rx="10.66666" ry="10.66666"/>
      <rect class="cls-19" x="128" y="64" width="21.33333" height="85.33333" rx="10.66666" ry="10.66666"/>
      <rect class="cls-19" x="170.66667" y="64" width="21.33333" height="85.33333" rx="10.66666" ry="10.66666"/>
      <rect class="cls-19" x="213.33333" y="64" width="21.33333" height="85.33333" rx="10.66666" ry="10.66666"/>
      <rect class="cls-20" x="298.66667" y="42.66667" width="21.33333" height="64" rx="10.66666" ry="10.66666" transform="translate(234.66667 384) rotate(-90)"/>
      <rect class="cls-20" x="298.66667" y="106.66667" width="21.33333" height="64" rx="10.66666" ry="10.66666" transform="translate(170.66667 448) rotate(-90)"/>
      <path class="cls-21" d="M391.0239,490.66667H98.54558a42.66665,42.66665,0,0,1-38.16222-23.58556L23.61308,372.20722a21.33333,21.33333,0,0,1,19.08111-30.87389H234.66671a34.518,34.518,0,0,0,30.87383-19.08107l0,0a42.66664,42.66664,0,0,1,38.16222-23.58555H468.20863a21.33333,21.33333,0,0,1,19.08111,30.87389L429.18613,467.08111A42.66667,42.66667,0,0,1,391.0239,490.66667Z"/>
      <rect class="cls-22" x="42.66667" y="362.66667" width="192" height="21.33333" rx="10.66666" ry="10.66666"/>
      <rect class="cls-22" x="298.66667" y="320" width="85.33333" height="21.33333" rx="10.66666" ry="10.66666"/>
      <rect class="cls-23" x="85.33333" y="448" width="256" height="42.66667" rx="21.33331" ry="21.33331"/>
      <path class="cls-24" d="M468.2081,298.66667H396.06L346.63654,418.847c-16.49826,32.99651,7.4958,71.81971,44.387,71.81971h.0001a42.667,42.667,0,0,0,38.16266-23.58594l58.10287-137.54037A21.33325,21.33325,0,0,0,468.2081,298.66667Z"/>
      <rect class="cls-25" x="192" y="192" width="85.33333" height="21.33333" rx="10.66666" ry="10.66666"/>
      <rect class="cls-26" x="341.33333" y="192" width="85.33333" height="21.33333" rx="10.66666" ry="10.66666"/>
      <rect class="cls-27" x="64" y="192" width="85.33333" height="21.33333" rx="10.66666" ry="10.66666"/>
      <rect class="cls-28" x="128" y="21.33333" width="85.33333" height="21.33333" rx="10.66666" ry="10.66666"/>
      <rect class="cls-29" x="256" y="21.33333" width="85.33333" height="21.33333" rx="10.66666" ry="10.66666"/>
      <rect class="cls-30" x="128" y="170.66667" width="85.33333" height="21.33333" rx="10.66666" ry="10.66666"/>
      <rect class="cls-31" x="256" y="170.66667" width="85.33333" height="21.33333" rx="10.66666" ry="10.66666"/>
    </g>
  </g>
</svg>
